ply
format ascii 1.0
comment File exported by Rhinoceros Version 6.0
element vertex 279
property float x
property float y
property float z
property float nx
property float ny
property float nz
property uchar red
property uchar green
property uchar blue
element face 538
property list uchar uint vertex_index
element material 1
property uchar ambient_red
property uchar ambient_green
property uchar ambient_blue
property uchar ambient_alpha
property uchar diffuse_red
property uchar diffuse_green
property uchar diffuse_blue
property uchar diffuse_alpha
property uchar emissive_red
property uchar emissive_green
property uchar emissive_blue
property uchar emissive_alpha
property uchar specular_red
property uchar specular_green
property uchar specular_blue
property uchar specular_alpha
property double shine
property double transparency
end_header
0.876569 -0.010284 0.04747 0.9607928 0.06949142 0.268418 250 250 250
0.705032 -0.017745 -0.086809 -0.2879562 -0.6793031 -0.6750026 250 250 250
0.66028 -0.017745 -0.056959 -0.3038274 -0.8764831 -0.3734519 250 250 250
0.65281 0.012097 -0.056959 -0.6534839 0.6551218 -0.3791756 250 250 250
0.869099 0.012097 -0.079339 0.220538 0.8492735 -0.4796848 250 250 250
0.705032 0.012097 0.07732 -0.140783 0.7143724 0.6854576 250 250 250
0.65281 -0.017745 0.054924 -0.5795328 -0.7649004 0.2811922 250 250 250
0.876569 -0.017745 -0.071884 0.3629646 -0.8449386 -0.3928555 250 250 250
0.861651 0.012097 0.069849 0.2860178 0.7294128 0.6214103 250 250 250
0.764723 -0.017745 0.07732 0.04366056 -0.6084361 0.792401 250 250 250
0.65281 0.012097 0.054924 -0.7162856 0.5137815 0.4721901 250 250 250
0.705032 0.012097 -0.086809 -0.1405141 0.5663037 -0.8121305 250 250 250
0.869099 -0.017745 0.062395 0.5708222 -0.6286366 0.5281837 250 250 250
0.876569 0.012097 -0.042034 0.4655059 0.8848874 0.01668797 250 250 250
0.779595 -0.017745 -0.086809 0.05400191 -0.3196224 -0.9460049 250 250 250
0.705032 -0.017745 0.07732 -0.1791918 -0.4546348 0.8724663 250 250 250
0.884061 -0.017745 -0.056959 0.8218843 -0.5481212 -0.1551426 250 250 250
0.65281 -0.010284 -0.056959 -0.8269376 -0.2470734 -0.5051029 250 250 250
0.869099 0.012097 0.062395 0.8654792 0.385947 0.3193599 250 250 250
0.861651 -0.010284 0.069849 0.3311149 -0.2399725 0.9125656 250 250 250
0.869099 -0.010284 -0.079339 0.3354811 -0.2372948 -0.9116707 250 250 250
0.764723 0.012097 0.07732 0.03438866 0.4474784 0.8936334 250 250 250
0.764723 0.012097 -0.086809 0.03169985 0.4601439 -0.8872783 250 250 250
0.884061 -0.010284 -0.049504 0.9860252 0.1651873 0.02162351 250 250 250
0.876569 0.012097 -0.071884 0.8713579 0.3662708 -0.3264676 250 250 250
0.65281 -0.017745 -0.049504 -0.6843516 -0.6846536 -0.2508234 250 250 250
0.876569 -0.017745 0.04747 0.92041 -0.3416472 0.1900593 250 250 250
1.010848 -0.025215 0.069836 0.4703824 0.7729676 0.4257481 250 250 250
0.898949 -0.084876 -0.10171 -0.05217347 -0.02208831 -0.9983937 250 250 250
0.898949 -0.05506 -0.10171 -0.03621582 0.01134163 -0.9992796 250 250 250
0.652788 -0.032676 0.047461 -0.8602121 -0.2047039 0.4670454 250 250 250
0.913871 -0.10726 0.099682 -0.07512724 -0.5524701 0.8301401 250 250 250
0.705073 -0.10726 -0.056941 -0.5098032 -0.8231491 -0.2500525 250 250 250
0.705073 -0.017764 -0.086787 -0.1609024 0.6283075 -0.761144 250 250 250
1.033212 -0.10726 -0.034567 0.6381518 -0.754967 -0.1509538 250 250 250
1.003367 -0.025215 -0.079316 0.4466355 0.7218058 -0.52869 250 250 250
0.705073 -0.017764 0.077287 -0.08345233 0.892198 0.4438676 250 250 250
0.705073 -0.099798 0.047461 -0.5645465 -0.6592258 0.4966978 250 250 250
1.01829 -0.017764 -0.042038 0.2995431 0.9474814 -0.1120397 250 250 250
1.02577 -0.10726 0.054913 0.5599275 -0.7234016 0.4039447 250 250 250
0.9586 -0.025215 0.099682 0.0958797 0.4906386 0.8660721 250 250 250
0.973523 -0.10726 -0.094239 0.2847939 -0.6980476 -0.6569794 250 250 250
0.928794 -0.11473 0.010163 -0.01296499 -0.9992911 0.03534353 250 250 250
0.652788 -0.017764 -0.04949 -0.8563403 0.4783051 -0.1946934 250 250 250
0.712515 -0.084876 -0.086787 -0.4085384 -0.3815126 -0.829183 250 250 250
1.040692 -0.040138 0.054913 0.9115378 0.2998194 0.2814375 250 250 250
0.712515 -0.077415 0.077287 -0.4072355 -0.4011963 0.8204881 250 250 250
0.705073 -0.10726 0.032538 -0.4756364 -0.8651665 0.158924 250 250 250
1.040692 -0.040138 -0.04949 0.8880833 0.2926479 -0.3544931 250 250 250
0.988445 -0.099798 0.09221 0.462531 -0.1497782 0.8738602 250 250 250
0.966081 -0.032676 -0.10171 0.07849129 0.2618846 -0.9619021 250 250 250
0.981003 -0.017764 0.077287 0.1650462 0.9387144 0.3026137 250 250 250
0.652788 -0.05506 -0.00474 -0.952974 -0.3030302 -0.003636591 250 250 250
0.928794 -0.10726 -0.10171 -0.008322061 -0.5546693 -0.8320292 250 250 250
1.010848 -0.092337 -0.079316 0.6312591 -0.1721538 -0.7562242 250 250 250
0.981003 -0.017764 -0.079316 0.1502348 0.9308801 -0.3330043 250 250 250
1.040692 -0.099798 0.017615 0.9682806 -0.2470079 0.03767982 250 250 250
0.898949 -0.040138 0.099682 -0.05457337 0.02429264 0.9982142 250 250 250
0.652788 -0.017764 0.047461 -0.6260595 0.7348193 0.2609407 250 250 250
0.966081 -0.10726 0.099682 0.1494441 -0.6445533 0.7498116 250 250 250
0.943678 -0.11473 -0.012192 0.009816539 -0.9988961 -0.04593675 250 250 250
1.003367 -0.032676 0.084759 0.5178187 0.3709245 0.7708948 250 250 250
0.652788 -0.032676 -0.04949 -0.8298684 -0.1798734 -0.5281705 250 250 250
1.033212 -0.025215 0.032538 0.6151 0.7761219 0.1388772 250 250 250
0.712515 -0.10726 -0.064413 -0.2038672 -0.9015629 -0.3816051 250 250 250
0.652788 -0.047599 0.032538 -0.8371879 -0.4819303 0.2585719 250 250 250
1.01829 -0.017764 0.040009 0.336856 0.9272131 0.1637185 250 250 250
0.966081 -0.092337 -0.10171 0.2227375 -0.1397474 -0.9648102 250 250 250
0.988445 -0.032676 -0.094239 0.4264055 0.2544881 -0.8679943 250 250 250
1.01829 -0.10726 -0.064413 0.4679972 -0.797304 -0.3811625 250 250 250
1.040692 -0.062521 -0.04949 0.9237224 -0.1305812 -0.3601187 250 250 250
1.010848 -0.099798 0.077287 0.6313186 -0.2297781 0.7407016 250 250 250
0.973523 -0.032676 0.099682 0.2967502 0.169945 0.9397117 250 250 250
0.705073 -0.062521 0.077287 -0.3347701 -0.08519441 0.9384407 250 250 250
0.652788 -0.047599 -0.034567 -0.8941354 -0.3881179 -0.2233528 250 250 250
0.913871 -0.032676 -0.10171 -0.02422197 0.268135 -0.9630768 250 250 250
0.973523 -0.025215 -0.094239 0.1806606 0.7394629 -0.6485032 250 250 250
0.705073 -0.062521 -0.086787 -0.3630494 -0.06339154 -0.929611 250 250 250
0.712515 -0.092337 0.062384 -0.303932 -0.73892 0.6013505 250 250 250
0.712515 -0.10726 0.040009 -0.1863452 -0.9241901 0.3333889 250 250 250
0.898949 -0.084876 0.099682 -0.08974734 -0.03558695 0.9953286 250 250 250
1.010848 -0.032676 -0.079316 0.6260082 0.2936299 -0.7224231 250 250 250
1.040692 -0.032676 -0.027115 0.8306919 0.5533202 -0.06154517 250 250 250
1.040692 -0.05506 0.054913 0.8556238 -0.1229995 0.5027714 250 250 250
0.951158 -0.11473 0.002711 0.05395612 -0.9983272 0.02077238 250 250 250
1.033212 -0.10726 0.040009 0.6385643 -0.7504184 0.1706102 250 250 250
0.921314 -0.025215 0.099682 -0.03803841 0.4292367 0.9023907 250 250 250
0.988445 -0.092337 -0.094239 0.427906 -0.2030603 -0.8807173 250 250 250
1.040692 -0.099798 -0.019644 0.9314485 -0.3449278 -0.1158818 250 250 250
0.660306 -0.017764 0.054913 -0.5502207 0.2797725 0.7867557 250 250 250
0.995925 -0.10726 0.084759 0.3751515 -0.7530321 0.540559 250 250 250
0.980985 0.116523 0.054924 0.3108752 0.8643554 0.3952801 250 250 250
0.928774 0.027037 -0.09427 -0.01139227 -0.1527584 -0.9881979 250 250 250
0.928774 0.049414 -0.09427 0.01032513 0.05862072 -0.9982269 250 250 250
0.652788 0.012108 0.054924 -0.8536423 -0.3741786 0.3623331 250 250 250
0.712521 0.109064 -0.06442 -0.3600617 0.8601691 -0.3611991 250 250 250
0.995918 0.019578 0.077307 0.4940022 -0.5621017 0.6633276 250 250 250
0.705073 0.012108 -0.086803 -0.1659196 -0.6612179 -0.7316157 250 250 250
0.712521 0.086687 0.069858 -0.4576955 0.5806497 0.6733207 250 250 250
0.995918 0.109064 -0.056953 0.45555 0.6824633 -0.5715925 250 250 250
1.025747 0.019578 -0.03457 0.6482331 -0.7282953 -0.2222157 250 250 250
0.928774 0.079228 0.092241 0.004128099 0.206791 0.9783764 250 250 250
0.705073 0.109064 0.032541 -0.5161896 0.8342143 0.1939967 250 250 250
0.652788 0.049414 -0.03457 -0.9051596 0.3994291 -0.1454045 250 250 250
0.705073 0.012108 0.077307 -0.09381553 -0.8085789 0.5808604 250 250 250
0.913841 0.123993 -0.042037 -0.01509521 0.9895734 -0.1432361 250 250 250
1.025747 0.086687 0.032541 0.9096858 0.3536968 0.2176473 250 250 250
0.712521 0.079228 -0.086803 -0.2118655 0.2732842 -0.9383116 250 250 250
0.951155 0.094146 -0.086803 0.1285936 0.4973088 -0.8579905 250 250 250
0.876563 0.012108 -0.071887 0.02676419 -0.9981843 -0.05396036 250 250 250
0.928774 0.123993 0.047475 0.004138915 0.9795811 0.2010068 250 250 250
0.98847 0.019578 -0.079336 0.4034308 -0.6743973 -0.6184107 250 250 250
0.958603 0.019578 0.092241 0.1565499 -0.3836744 0.9101022 250 250 250
0.652788 0.012108 -0.049504 -0.8945527 -0.3466252 -0.2821816 250 250 250
0.958603 0.109064 0.077307 0.2148873 0.6620467 0.7179956 250 250 250
0.869115 0.012108 0.062391 0.02776598 -0.9979141 0.05827855 250 250 250
0.98847 0.123993 -0.004739 0.2272218 0.9736968 -0.0168796 250 250 250
1.025747 0.056873 0.054924 0.8393717 0.1426267 0.5245119 250 250 250
1.025747 0.056873 -0.049504 0.8747142 0.06725435 -0.4799499 250 250 250
0.652788 0.049414 0.032541 -0.894555 0.3882422 0.221448 250 250 250
0.705073 0.064332 0.077307 -0.3333327 0.1776269 0.9259255 250 250 250
0.958603 0.116523 -0.06442 0.1089152 0.8551546 -0.5068019 250 250 250
0.98847 0.086687 0.077307 0.5227993 0.3658192 0.7699723 250 250 250
1.033232 0.027037 0.00271 0.9759066 -0.2118502 0.05220855 250 250 250
0.973537 0.079228 -0.086803 0.3357273 0.1194727 -0.9343519 250 250 250
1.025747 0.086687 -0.027122 0.9168527 0.3628153 -0.1665722 250 250 250
0.921326 0.109064 0.077307 -0.0594258 0.6839291 0.7271242 250 250 250
0.891497 0.123993 0.010159 -0.06141188 0.9979918 0.01552365 250 250 250
1.025747 0.019578 0.032541 0.4665364 -0.8760123 0.122255 250 250 250
1.010851 0.109064 0.032541 0.6419953 0.7464728 0.1749868 250 250 250
0.913841 0.027037 0.092241 -0.0471921 -0.0675715 0.9965977 250 250 250
0.712521 0.109064 0.040008 -0.1767732 0.9184812 0.3537563 250 250 250
0.973537 0.019578 -0.086803 0.2187531 -0.6495647 -0.7281571 250 250 250
1.010851 0.109064 -0.03457 0.6418564 0.7297919 -0.2354231 250 250 250
0.705073 0.109064 -0.03457 -0.445642 0.8935195 -0.05500958 250 250 250
0.712521 0.094146 -0.079336 -0.221822 0.5910203 -0.7755578 250 250 250
0.652788 0.034496 -0.049504 -0.7737904 0.1554422 -0.6140734 250 250 250
0.973537 0.086687 0.084774 0.2910651 0.2337802 0.9277003 250 250 250
0.966089 0.123993 -0.042037 0.1913856 0.9539248 -0.2310823 250 250 250
1.003366 0.027037 -0.071887 0.6456206 -0.1563884 -0.7474735 250 250 250
0.995918 0.086687 -0.071887 0.5536609 0.3081416 -0.7736332 250 250 250
1.003366 0.101605 0.054924 0.6097318 0.5484428 0.5722216 250 250 250
1.025747 0.034496 0.054924 0.8720332 -0.2467215 0.4227133 250 250 250
0.705073 0.064332 -0.086803 -0.387041 0.1107277 -0.9153899 250 250 250
0.652788 0.034496 0.047475 -0.7794837 0.329709 0.5326323 250 250 250
0.921326 0.116523 -0.06442 -0.0167495 0.8210936 -0.5705478 250 250 250
0.951155 0.027037 -0.09427 0.07768503 -0.2575574 -0.9631351 250 250 250
0.980985 0.123993 0.025093 0.2346466 0.961032 0.1461452 250 250 250
0.779665 0.012108 -0.086803 0.01745681 -0.8536252 -0.5205952 250 250 250
0.884011 0.012108 -0.049504 0.03901969 -0.9992342 -0.002910413 250 250 250
0.995918 0.064332 0.077307 0.4813308 0.07746044 0.8731097 250 250 250
1.033232 0.041955 -0.004739 0.9980749 0.03931249 -0.0479697 250 250 250
0.705073 0.086687 -0.079336 -0.62576 0.4272437 -0.6526003 250 250 250
0.712521 0.071769 0.077307 -0.1627679 0.3474089 0.9234791 250 250 250
1.010851 0.086687 -0.056953 0.7575786 0.3682079 -0.5389783 250 250 250
0.085865 -0.062507 -0.027122 0.009224466 -0.9726396 -0.2321361 250 250 250
0.085865 0.06432 0.017632 0.0112206 0.9885306 0.150603 250 250 250
0.30962 0.056859 0.032542 0.01037229 0.8871508 0.461363 250 250 250
0.652788 0.034463 -0.049506 0.6190163 0.4069632 -0.671714 250 250 250
0.637832 -0.025201 0.054938 0.07132763 -0.4198022 0.9048085 250 250 250
0.055953 -0.025201 0.062399 -0.7120258 -0.1528693 0.6853103 250 250 250
0.055953 0.034463 -0.056967 -0.7890246 0.3228753 -0.5226775 250 250 250
0.652788 -0.03265 -0.049506 0.6595951 -0.3977895 -0.6377287 250 250 250
0.652788 0.034463 0.047477 0.7913941 0.378426 0.480093 250 250 250
0.652788 -0.047585 0.032542 0.5729765 -0.7302998 0.3719679 250 250 250
0.055953 -0.01774 -0.064428 -0.6285877 -0.155098 -0.7621169 250 250 250
0.055953 0.019553 0.062399 -0.6104138 0.1821074 0.7708644 250 250 250
0.055953 -0.062507 0.025093 -0.8068427 -0.5838393 0.09020292 250 250 250
0.652788 0.049398 -0.034571 0.4076539 0.8529147 -0.326121 250 250 250
0.055953 0.06432 -0.019661 -0.7890493 0.5978732 -0.1412403 250 250 250
0.540852 -0.055046 -0.012188 0.03198355 -0.996777 -0.07357121 250 250 250
0.652788 0.01208 -0.056967 0.4667724 0.1139251 -0.8770089 250 250 250
0.652788 0.049398 0.032542 0.197256 0.9474024 0.2520292 250 250 250
0.152991 -0.040124 0.054938 0.007680302 -0.6040852 0.7968827 250 250 250
0.361732 0.004618 0.062399 0.009854036 0.009540113 0.9999059 250 250 250
0.652788 -0.047585 -0.034571 0.2115054 -0.9251369 -0.3152574 250 250 250
0.324634 -0.03265 -0.056967 0.01029276 -0.4925607 -0.8702172 250 250 250
0.197742 0.01208 -0.064428 0.005710827 0.1395571 -0.9901975 250 250 250
0.055953 0.034463 0.054938 -0.4506911 0.5787208 0.6796762 250 250 250
0.279766 0.056859 -0.034571 0.007003321 0.8595366 -0.5110261 250 250 250
0.585603 0.027014 0.054938 0.02322055 0.397895 0.917137 250 250 250
0.615398 -0.01774 -0.056967 0.03043894 -0.2545704 -0.9665751 250 250 250
0.563169 -0.047585 0.040016 0.02600764 -0.7944188 0.6068133 250 250 250
0.443872 0.056859 -0.004726 0.02664828 0.9996294 -0.005555973 250 250 250
0.36921 0.034463 0.054938 0.006303492 0.5070865 0.8618721 250 250 250
0.055953 -0.03265 -0.056967 -0.5591118 -0.5202369 -0.6455598 250 250 250
0.272405 0.034463 -0.056967 0.009399389 0.4718923 -0.8816061 250 250 250
0.488623 -0.055046 0.025093 0.02639797 -0.9844686 0.1735649 250 250 250
0.055953 -0.055046 0.040016 -0.4518762 -0.7237005 0.5215991 250 250 250
0.055953 0.056859 0.032542 -0.4518574 0.7237307 0.5215733 250 250 250
0.45135 -0.047585 -0.042045 0.01241762 -0.7253025 -0.6883184 250 250 250
0.652788 0.019553 0.054938 0.4729387 0.160038 0.8664392 250 250 250
0.055953 -0.062507 -0.027122 -0.2561423 -0.799456 -0.5433795 250 250 250
0.220118 -0.010267 -0.064428 0.01015019 -0.09679432 -0.9952527 250 250 250
0.055953 0.056859 -0.034571 -0.3195219 0.7376909 -0.5947419 250 250 250
0.555691 -0.055046 0.002698 0.03724081 -0.9991608 0.01705405 250 250 250
0.466248 0.049398 0.040016 0.0126907 0.7400344 0.6724493 250 250 250
0.055953 0.01208 -0.064428 -0.4518754 0.1428955 -0.880562 250 250 250
0.339531 -0.010267 0.062399 0.01459873 -0.07943165 0.9967334 250 250 250
0.6005 0.019553 -0.056967 0.0231523 0.2776225 -0.9604113 250 250 250
0.197742 0.019553 0.062399 0.005228284 0.2083642 0.9780374 250 250 250
0.376746 -0.055046 -0.034571 0.01672372 -0.873431 -0.4866606 250 250 250
0.085865 -0.062507 0.025093 0.009365741 -0.9737795 0.2273011 250 250 250
0.35437 0.041937 -0.049506 0.008009357 0.6989949 -0.7150818 250 250 250
0.085865 0.06432 -0.019661 0.01308251 0.987878 -0.1546798 250 250 250
0.145513 -0.055046 0.040016 0.008007618 -0.8243056 0.5660884 250 250 250
0.563169 -0.040124 0.047477 0.03810027 -0.6552432 0.7544566 250 250 250
0.406541 -0.055046 0.032542 0.02058535 -0.9320343 0.361785 250 250 250
0.652788 -0.01774 0.054938 0.3349709 -0.1614908 0.9282862 250 250 250
0.481087 -0.055046 -0.027122 0.02488285 -0.9775811 -0.2090835 250 250 250
0.652788 -0.010267 -0.056967 0.2708101 -0.1016851 -0.9572471 250 250 250
0.055953 -0.040124 0.054938 -0.4518762 -0.5215991 0.7237005 250 250 250
0.428975 0.056859 0.010159 0.02541295 0.99847 0.04911036 250 250 250
0.055953 0.06432 0.017632 -0.45698 0.8656496 0.2044992 250 250 250
0.503462 -0.025201 -0.056967 0.01685179 -0.3261884 -0.9451545 250 250 250
0.235015 0.004618 -0.064428 0.01286849 0.01610298 -0.9997875 250 250 250
0.466248 0.041937 0.047477 0.01436508 0.6583816 0.7525473 250 250 250
0.45135 -0.040124 -0.049506 0.009159001 -0.6729815 -0.7396026 250 250 250
0.324634 0.01208 0.062399 0.01330061 0.1273851 0.9917641 250 250 250
0.011191 -0.047586 -0.079326 0.1656924 -0.4616076 -0.8714726 250 250 250
0.00373 0.012091 0.092241 0.06746739 0.1598757 0.9848289 250 250 250
-0.00373 0.012091 0.092241 -0.8671935 0.01735278 0.497669 250 250 250
-0.00373 0.086701 -0.03458 -0.6925456 0.711627 -0.1181846 250 250 250
0.055953 0.064303 0.025097 0.9543631 0.2900216 0.07126352 250 250 250
0.048493 -0.06995 0.032528 0.7248315 -0.6673501 0.1710647 250 250 250
0.055953 0.01954 -0.064411 0.9482211 0.03269322 -0.3159238 250 250 250
-0.00373 -0.092349 0.010165 -0.8176897 -0.5718333 0.06625888 250 250 250
-0.00373 0.034473 -0.086809 -0.7710797 0.1328818 -0.6227186 250 250 250
0.055953 -0.055035 -0.042047 0.9709875 -0.1869659 -0.1490872 250 250 250
-0.00373 0.086701 0.040012 -0.5796721 0.7668204 0.2756205 250 250 250
0.055953 0.027006 0.062376 0.9345503 0.1072042 0.3392977 250 250 250
0.026112 -0.047586 0.077308 0.2323045 -0.5079023 0.8294998 250 250 250
0.033566 0.079218 -0.042047 0.3519207 0.8354885 -0.4220318 250 250 250
-0.00373 -0.084865 -0.042047 -0.4810203 -0.8060734 -0.3447683 250 250 250
0.033566 0.056836 0.069842 0.3656055 0.5828641 0.7256735 250 250 250
-0.00373 -0.077416 0.054927 -0.5863021 -0.6673034 0.4592994 250 250 250
0.041027 -0.077416 -0.03458 0.5266598 -0.8099493 -0.2580919 250 250 250
0.055953 -0.032636 0.062376 0.8840132 -0.1322461 0.4483655 250 250 250
0.041027 -0.025205 -0.079326 0.6053229 -0.1527678 -0.7811825 250 250 250
0.033566 0.086701 0.010165 0.3987546 0.913873 0.07635996 250 250 250
0.041027 0.027006 -0.079326 0.5459994 0.1940787 -0.8149958 250 250 250
0.033566 0.027006 0.084757 0.451713 0.1798286 0.8738518 250 250 250
0.055953 0.056836 -0.042047 0.8978888 0.3774133 -0.2266162 250 250 250
-0.00373 -0.032636 -0.086809 -0.4373043 -0.2900825 -0.8512444 250 250 250
-0.00373 0.041921 0.084757 -0.5597093 0.2913931 0.7757677 250 250 250
0.026112 0.056836 -0.071877 0.2069576 0.5578873 -0.8036979 250 250 250
-0.00373 -0.04012 0.084757 -0.3002717 -0.3847628 0.8728083 250 250 250
0.033566 -0.025205 0.084757 0.4445518 -0.2470994 0.8609968 250 250 250
0.033566 -0.084865 0.017613 0.4424534 -0.8849464 0.1452751 250 250 250
0.041027 -0.055035 -0.064411 0.4833352 -0.543171 -0.686551 250 250 250
0.026112 -0.025205 -0.086809 0.2530196 -0.1870991 -0.9491971 250 250 250
0.041027 -0.06995 0.047461 0.4810972 -0.7423556 0.4663192 250 250 250
0.033566 0.079218 0.040012 0.4785136 0.7789299 0.4053306 250 250 250
0.011191 -0.092349 -0.004733 0.1588781 -0.9867414 -0.03315335 250 250 250
0.055953 -0.062484 0.025097 0.9293045 -0.3392361 0.1459865 250 250 250
0.055953 -0.025205 -0.064411 0.8412589 -0.1922086 -0.5053111 250 250 250
0.011191 0.071769 0.062376 0.1277324 0.7406234 0.6596677 250 250 250
0.00373 -0.062484 -0.071877 0.1050422 -0.6417758 -0.7596644 250 250 250
-0.00373 0.079218 -0.049496 -0.516739 0.6867622 -0.5112128 250 250 250
0.011191 -0.084865 0.040012 0.1582208 -0.9215192 0.3546385 250 250 250
0.041027 0.056836 -0.064411 0.5694399 0.5354595 -0.6237158 250 250 250
0.041027 0.079218 -0.027114 0.6358597 0.7488565 -0.1868059 250 250 250
0.026112 0.01954 -0.086809 0.2323291 0.1865925 -0.9545713 250 250 250
0.033566 -0.055035 0.069842 0.4104038 -0.559311 0.720236 250 250 250
0.018651 -0.077416 -0.049496 0.2348738 -0.8107558 -0.536199 250 250 250
0.011191 -0.002824 0.092241 0.08526934 -0.07369119 0.9936291 250 250 250
0.055953 0.056836 0.040012 0.8265148 0.4441751 0.345806 250 250 250
0.011191 -0.06995 0.062376 0.1280097 -0.7000831 0.7024936 250 250 250
0.011191 0.041921 0.084757 0.1116815 0.4468574 0.8876067 250 250 250
-0.00373 0.049388 -0.079326 -0.4117936 0.5337049 -0.7386374 250 250 250
-0.00373 0.064303 0.069842 -0.3202025 0.6237776 0.713002 250 250 250
0.055953 -0.062484 -0.027114 0.8411064 -0.5350402 -0.07919632 250 250 250
0.041027 0.049388 0.069842 0.6470286 0.4647591 0.6044444 250 250 250
0.055953 0.064303 -0.019665 0.813135 0.580346 -0.04483307 250 250 250
0.033566 0.086701 -0.004733 0.4096117 0.9087483 -0.07996672 250 250 250
0.055953 0.041921 -0.056944 0.8353071 0.2744928 -0.4763569 250 250 250
0.048493 -0.047586 0.062376 0.7144029 -0.4543448 0.5321648 250 250 250
-0.00373 -0.062484 -0.071877 -0.4569494 -0.5699511 -0.6829004 250 250 250
0.011191 -0.04012 0.084757 0.09882843 -0.4036857 0.9095442 250 250 250
3 23 0 26
3 4 3 5
3 2 1 6
3 6 1 7
3 4 5 8
3 6 7 9
3 5 3 10
3 3 6 10
3 6 5 10
3 1 3 11
3 3 4 11
3 9 7 12
3 4 8 13
3 7 1 14
3 1 11 14
3 5 6 15
3 9 5 15
3 6 9 15
3 12 7 16
3 1 2 17
3 3 1 17
3 6 3 17
3 12 0 18
3 8 12 18
3 13 8 18
3 8 9 19
3 12 8 19
3 9 12 19
3 4 7 20
3 14 4 20
3 7 14 20
3 8 5 21
3 5 9 21
3 9 8 21
3 11 4 22
3 4 14 22
3 14 11 22
3 18 0 23
3 13 18 23
3 7 4 24
3 4 13 24
3 16 7 24
3 13 23 24
3 23 16 24
3 2 6 25
3 17 2 25
3 6 17 25
3 0 12 26
3 12 16 26
3 16 23 26
3 59 84 90
3 29 28 33
3 33 36 38
3 36 33 43
3 30 37 46
3 32 42 47
3 35 38 48
3 28 29 50
3 38 36 51
3 36 40 51
3 30 43 52
3 32 47 52
3 44 28 53
3 28 50 53
3 33 38 55
3 38 35 55
3 48 45 56
3 31 40 57
3 43 30 58
3 36 43 58
3 40 31 59
3 31 42 59
3 42 32 60
3 53 41 60
3 45 27 61
3 27 51 61
3 51 40 61
3 43 33 62
3 44 32 62
3 52 43 62
3 27 45 63
3 32 44 64
3 44 53 64
3 60 32 64
3 53 60 64
3 37 30 65
3 47 37 65
3 30 52 65
3 52 47 65
3 51 27 66
3 38 51 66
3 27 63 66
3 63 38 66
3 41 53 67
3 53 50 67
3 67 50 68
3 41 54 69
3 60 41 69
3 54 48 70
3 48 56 70
3 34 69 70
3 69 54 70
3 61 49 71
3 40 59 72
3 59 49 72
3 61 40 72
3 49 61 72
3 30 46 73
3 57 36 73
3 32 52 74
3 62 32 74
3 52 62 74
3 29 33 75
3 50 29 75
3 33 50 75
3 50 33 76
3 33 55 76
3 55 35 76
3 35 68 76
3 68 50 76
3 33 28 77
3 28 44 77
3 62 33 77
3 44 62 77
3 31 46 78
3 46 37 78
3 42 31 79
3 37 47 79
3 47 42 79
3 31 78 79
3 78 37 79
3 46 31 80
3 31 57 80
3 73 46 80
3 57 73 80
3 35 48 81
3 48 54 81
3 54 68 81
3 68 35 81
3 48 38 82
3 45 48 82
3 63 45 82
3 38 63 82
3 56 45 83
3 45 61 83
3 71 39 83
3 61 71 83
3 59 42 84
3 42 60 84
3 69 34 84
3 60 69 84
3 34 56 85
3 83 39 85
3 56 83 85
3 84 34 85
3 39 84 85
3 40 36 86
3 57 40 86
3 36 57 86
3 54 41 87
3 41 67 87
3 68 54 87
3 67 68 87
3 56 34 88
3 34 70 88
3 70 56 88
3 58 30 89
3 36 58 89
3 30 73 89
3 73 36 89
3 49 59 90
3 39 71 90
3 71 49 90
3 84 39 90
3 118 140 154
3 93 92 97
3 94 97 104
3 93 107 108
3 104 97 109
3 100 109 111
3 97 94 113
3 94 103 113
3 91 110 114
3 104 109 115
3 96 112 115
3 112 104 115
3 105 110 116
3 98 102 119
3 103 94 119
3 102 103 119
3 94 104 120
3 99 108 121
3 93 108 124
3 101 114 126
3 114 110 126
3 105 95 127
3 110 105 127
3 96 115 128
3 100 123 128
3 106 125 129
3 112 101 130
3 104 112 130
3 101 120 130
3 120 104 130
3 102 98 131
3 98 126 131
3 126 110 131
3 127 102 131
3 110 127 131
3 111 109 132
3 124 111 132
3 116 129 133
3 129 125 133
3 95 103 134
3 103 102 134
3 127 95 134
3 102 127 134
3 108 107 135
3 97 113 136
3 113 103 136
3 101 112 137
3 114 101 137
3 122 114 137
3 105 116 138
3 121 105 138
3 99 121 138
3 133 99 138
3 116 133 138
3 100 111 139
3 118 100 139
3 111 124 139
3 139 124 140
3 108 99 140
3 124 108 140
3 118 139 140
3 91 114 141
3 117 106 141
3 114 122 141
3 122 117 141
3 129 91 141
3 106 129 141
3 117 96 142
3 123 117 142
3 96 128 142
3 128 123 142
3 93 97 143
3 107 93 143
3 97 136 143
3 119 94 144
3 98 119 144
3 120 98 144
3 94 120 144
3 95 105 145
3 105 121 145
3 121 108 145
3 135 95 145
3 108 135 145
3 92 93 146
3 97 92 146
3 93 124 146
3 124 132 146
3 110 91 147
3 116 110 147
3 91 129 147
3 129 116 147
3 109 97 148
3 132 109 148
3 97 146 148
3 146 132 148
3 109 100 149
3 115 109 149
3 100 128 149
3 128 115 149
3 112 96 150
3 96 117 150
3 117 122 150
3 137 112 150
3 122 137 150
3 106 117 151
3 100 118 151
3 123 100 151
3 117 123 151
3 125 106 151
3 118 125 151
3 103 95 152
3 95 135 152
3 135 107 152
3 136 103 152
3 107 143 152
3 143 136 152
3 98 120 153
3 120 101 153
3 126 98 153
3 101 126 153
3 125 118 154
3 99 133 154
3 133 125 154
3 140 99 154
3 180 200 218
3 162 158 163
3 162 163 164
3 160 161 165
3 161 160 166
3 160 165 167
3 163 158 168
3 161 166 169
3 158 162 171
3 156 157 172
3 163 168 172
3 159 160 173
3 166 160 174
3 162 164 175
3 169 166 178
3 172 168 183
3 178 166 184
3 167 165 185
3 165 176 185
3 177 161 186
3 160 167 188
3 157 156 189
3 169 178 189
3 162 175 190
3 164 163 191
3 163 180 191
3 155 167 192
3 167 185 192
3 190 155 192
3 165 177 193
3 161 169 194
3 169 179 194
3 155 170 195
3 175 164 195
3 170 175 195
3 164 187 195
3 172 157 196
3 163 172 196
3 157 189 196
3 189 178 196
3 165 161 197
3 161 177 197
3 177 165 197
3 160 159 198
3 174 160 198
3 158 171 199
3 171 177 199
3 186 158 199
3 177 186 199
3 166 174 200
3 184 166 200
3 180 184 200
3 155 190 201
3 190 175 201
3 167 155 202
3 188 167 202
3 155 195 202
3 195 187 202
3 168 158 203
3 179 168 203
3 158 186 203
3 186 161 203
3 161 194 203
3 194 179 203
3 169 156 204
3 168 179 204
3 179 169 204
3 156 183 204
3 183 168 204
3 182 173 205
3 173 188 205
3 188 202 205
3 164 159 206
3 159 173 206
3 182 164 206
3 173 182 206
3 164 182 207
3 187 164 207
3 202 187 207
3 182 205 207
3 205 202 207
3 159 164 208
3 164 191 208
3 191 174 208
3 198 159 208
3 174 198 208
3 170 155 209
3 175 170 209
3 155 201 209
3 201 175 209
3 171 162 210
3 162 181 210
3 181 193 210
3 173 160 211
3 160 188 211
3 188 173 211
3 156 172 212
3 183 156 212
3 172 183 212
3 156 169 213
3 189 156 213
3 169 189 213
3 176 165 214
3 162 176 214
3 181 162 214
3 165 193 214
3 193 181 214
3 177 171 215
3 193 177 215
3 171 210 215
3 210 193 215
3 180 163 216
3 178 184 216
3 184 180 216
3 163 196 216
3 196 178 216
3 176 162 217
3 185 176 217
3 162 190 217
3 192 185 217
3 190 192 217
3 174 191 218
3 191 180 218
3 200 174 218
3 246 267 278
3 221 222 226
3 226 222 227
3 225 223 228
3 222 221 229
3 228 223 230
3 226 227 233
3 221 226 235
3 228 230 237
3 222 229 239
3 225 238 240
3 237 230 241
3 223 225 242
3 233 227 243
3 221 220 244
3 229 221 244
3 221 235 246
3 237 241 247
3 236 224 248
3 228 236 249
3 238 249 250
3 240 238 250
3 219 243 250
3 243 227 250
3 249 219 250
3 248 224 251
3 239 229 252
3 223 239 252
3 226 233 253
3 233 236 253
3 236 248 253
3 228 237 254
3 225 228 255
3 238 225 255
3 228 249 255
3 249 238 255
3 252 229 256
3 234 252 256
3 243 219 257
3 219 249 257
3 227 222 258
3 222 232 258
3 232 245 258
3 235 226 259
3 248 251 259
3 226 253 259
3 253 248 259
3 232 242 260
3 245 232 260
3 240 245 260
3 242 232 261
3 227 245 262
3 245 240 262
3 250 227 262
3 240 250 262
3 247 231 263
3 236 233 264
3 249 236 264
3 233 257 264
3 257 249 264
3 220 221 265
3 241 220 265
3 221 246 265
3 247 241 265
3 230 223 266
3 223 252 266
3 246 235 267
3 235 259 267
3 259 251 267
3 263 231 267
3 251 263 267
3 220 241 268
3 241 234 268
3 244 220 268
3 234 256 268
3 245 227 269
3 227 258 269
3 258 245 269
3 229 244 270
3 256 229 270
3 244 268 270
3 268 256 270
3 224 236 271
3 236 228 271
3 254 224 271
3 228 254 271
3 234 241 272
3 241 230 272
3 252 234 272
3 230 266 272
3 266 252 272
3 239 223 273
3 223 242 273
3 242 261 273
3 273 261 274
3 232 222 274
3 222 239 274
3 261 232 274
3 239 273 274
3 225 240 275
3 242 225 275
3 240 260 275
3 260 242 275
3 237 247 276
3 251 224 276
3 224 254 276
3 254 237 276
3 247 263 276
3 263 251 276
3 233 243 277
3 257 233 277
3 243 257 277
3 231 247 278
3 265 246 278
3 247 265 278
3 267 231 278
0 0 0 255 250 250 250 255 0 0 0 255 255 255 255 255 0 0
